<?xml version="1.0" encoding="utf-8"?>
<svg version="1.1" xmlns="http://www.w3.org/2000/svg" width="1024" height="1024">
  <ellipse style="stroke-width: 0px; paint-order: stroke; stroke: rgb(231, 111, 71); fill: rgb(231, 111, 71);" cx="510.281" cy="513.718" rx="337.611" ry="345.342"/>
  <path d="M0 0 C1.27941467 0.00248749 2.55882935 0.00497498 3.87701416 0.00753784 C33.90482816 0.09780087 62.21303655 3.27181965 91.56005859 9.49414062 C94.71970444 10.16100455 97.88239624 10.79858615 101.05078125 11.421875 C161.73663001 23.96369833 220.40471733 55.61547288 267.67578125 94.859375 C269.29267742 96.19304545 270.92256634 97.50733316 272.5625 98.8125 C277.71807622 102.93696098 282.51014415 107.20211973 287.07421875 111.9765625 C289.07342328 113.95263574 291.11098597 115.7729756 293.2421875 117.6015625 C297.38224854 121.19471412 301.15111091 125.04414339 304.875 129.0625 C305.52895752 129.7649585 306.18291504 130.46741699 306.85668945 131.19116211 C311.96135472 136.71431511 316.7742435 142.41171849 321.4375 148.3125 C322.35392905 149.4387546 323.27199913 150.5636752 324.19140625 151.6875 C364.31559632 200.91455077 392.60387982 259.06110861 405.4375 321.3125 C405.65148437 322.31667969 405.86546875 323.32085937 406.0859375 324.35546875 C424.05856352 409.46113901 412.17396337 499.4448636 376.4375 578.3125 C376.06061035 579.15973633 375.6837207 580.00697266 375.29541016 580.87988281 C366.27834292 601.09850194 355.13395166 620.19432033 342.4375 638.3125 C341.64061768 639.45525391 341.64061768 639.45525391 340.82763672 640.62109375 C334.58830906 649.53071282 328.13988959 658.13999703 321 666.34765625 C318.49558153 669.24529897 316.08579263 672.20178772 313.6875 675.1875 C310.66693023 678.90140341 307.53848542 682.33298903 304.09765625 685.65625 C302.38225165 687.36761835 300.81952143 689.15439408 299.25 691 C291.9838242 699.41174406 283.91766374 707.13926167 275.4375 714.3125 C274.41186421 715.20078919 273.38721228 716.09021502 272.36328125 716.98046875 C213.36739956 768.1586363 143.32474729 801.48650299 66.36474609 814.63085938 C63.92142437 815.05493959 61.48089783 815.49591645 59.04541016 815.96289062 C20.34107488 823.37323289 -24.47016229 822.38185916 -63.25 815.5625 C-64.83731599 815.28878949 -66.42463702 815.01510827 -68.01196289 814.74145508 C-72.53313598 813.95511511 -77.04885208 813.14085297 -81.5625 812.3125 C-82.68978516 812.10608887 -83.81707031 811.89967773 -84.97851562 811.68701172 C-121.43330606 804.82360982 -156.71063325 791.27271407 -189.60595703 774.31738281 C-191.58436013 773.30127261 -193.57115539 772.30298825 -195.55859375 771.3046875 C-212.79447242 762.53270969 -229.07258761 751.87242225 -244.5625 740.3125 C-245.37074219 739.71042725 -245.37074219 739.71042725 -246.1953125 739.09619141 C-254.58527778 732.8211137 -262.68100795 726.21622513 -270.5625 719.3125 C-271.27398193 718.69076904 -271.98546387 718.06903809 -272.71850586 717.4284668 C-279.39965147 711.50806241 -285.74293553 705.28596534 -292.04077148 698.96459961 C-293.75457233 697.2454133 -295.47369082 695.53167417 -297.19335938 693.81835938 C-302.86095615 688.15485473 -308.42368785 682.46811403 -313.5625 676.3125 C-314.06966553 675.71203857 -314.57683105 675.11157715 -315.09936523 674.49291992 C-332.79348527 653.39012527 -347.84036935 630.73522738 -361.23144531 606.70019531 C-362.04628207 605.23851088 -362.86501248 603.778978 -363.69042969 602.32324219 C-375.00250531 582.37285427 -383.12387568 560.922051 -390.54345703 539.28027344 C-391.38844021 536.81941682 -392.24883894 534.3653282 -393.12109375 531.9140625 C-412.72832171 475.59672861 -417.5853433 410.04978895 -408.5625 351.3125 C-408.39621094 350.16168945 -408.22992188 349.01087891 -408.05859375 347.82519531 C-398.01977242 279.31953492 -369.53364002 212.05500447 -325.5625 158.3125 C-324.84449219 157.41660156 -324.12648438 156.52070313 -323.38671875 155.59765625 C-321.13790922 152.81360609 -318.85209636 150.06306335 -316.5625 147.3125 C-315.79808594 146.36117187 -315.03367187 145.40984375 -314.24609375 144.4296875 C-307.18615372 135.78680738 -299.3665495 127.90008019 -291.5 120 C-290.94555206 119.44037567 -290.39110413 118.88075134 -289.81985474 118.3041687 C-283.51555883 111.95356644 -277.13063885 105.9503938 -270.11694336 100.37280273 C-267.66010448 98.39122352 -265.31442468 96.33073168 -262.9765625 94.2109375 C-258.48954492 90.18238906 -253.77608486 86.53198594 -248.9375 82.9375 C-248.06432129 82.2868457 -247.19114258 81.63619141 -246.29150391 80.96582031 C-238.87982538 75.48001101 -231.34778093 70.25219562 -223.5625 65.3125 C-222.90169434 64.89081543 -222.24088867 64.46913086 -221.56005859 64.03466797 C-184.7879724 40.69704201 -145.5503017 23.77342204 -103.5625 12.3125 C-102.6643457 12.06661133 -101.76619141 11.82072266 -100.84082031 11.56738281 C-89.74609803 8.59095713 -78.51369546 6.50190539 -67.1875 4.625 C-65.98319336 4.42237549 -64.77888672 4.21975098 -63.53808594 4.01098633 C-42.419006 0.65850721 -21.35510211 -0.06647327 0 0 Z M-33.1875 90.5625 C-34.8606424 93.39635255 -34.8606424 93.39635255 -34.5625 97.3125 C-35.70203125 97.41046875 -36.8415625 97.5084375 -38.015625 97.609375 C-106.12817515 103.86364337 -168.87431353 137.17654051 -217.5625 184.3125 C-218.48772461 185.20485352 -218.48772461 185.20485352 -219.43164062 186.11523438 C-227.01470479 193.4600871 -234.10330885 200.94147469 -240.5625 209.3125 C-241.59102898 210.62378958 -242.61968403 211.93498028 -243.6484375 213.24609375 C-281.12901794 261.31241315 -308.66278758 323.71494847 -308.73046875 385.6171875 C-308.73379715 386.69517609 -308.73712555 387.77316467 -308.74055481 388.88381958 C-308.74560074 391.16147437 -308.74796386 393.4391365 -308.74780273 395.71679688 C-308.74997123 399.14205696 -308.76810241 402.56698503 -308.78710938 405.9921875 C-308.8200513 418.58572626 -308.34609636 430.8438039 -306.5625 443.3125 C-306.32744751 445.02977295 -306.32744751 445.02977295 -306.08764648 446.78173828 C-304.28109497 459.4712354 -302.0895525 471.97975213 -298.5625 484.3125 C-298.35399414 485.05709473 -298.14548828 485.80168945 -297.93066406 486.56884766 C-287.17975467 524.72755435 -270.82838766 559.8404853 -246.5625 591.3125 C-246.10101563 591.91674805 -245.63953125 592.52099609 -245.1640625 593.14355469 C-239.89135075 600.03667854 -234.47561234 606.70837973 -228.59375 613.09765625 C-226.78408012 615.07089244 -225.04410109 617.08357813 -223.3125 619.125 C-215.71781709 627.80966055 -207.4673554 635.92305834 -198.40014648 643.05957031 C-195.70859394 645.19650974 -193.07094955 647.3866308 -190.43359375 649.58984375 C-184.9141314 654.10787294 -179.19381401 658.18721084 -173.25 662.125 C-172.21311035 662.81223145 -171.1762207 663.49946289 -170.10791016 664.20751953 C-159.91054855 670.8750848 -149.43554755 676.82400945 -138.5625 682.3125 C-137.31726563 682.94913574 -137.31726563 682.94913574 -136.046875 683.59863281 C-100.28484228 701.6342806 -58.19059618 713.43560551 -18.03515625 713.48046875 C-16.96615585 713.48379715 -15.89715546 713.48712555 -14.79576111 713.49055481 C-12.54442775 713.49558617 -10.29308702 713.49796432 -8.04174805 713.49780273 C-4.66507062 713.49997423 -1.28872859 713.51812991 2.08789062 713.53710938 C15.32940392 713.57204276 28.3029923 713.01426848 41.4375 711.3125 C42.61562256 711.16111572 43.79374512 711.00973145 45.00756836 710.85375977 C93.43830819 704.15073809 139.54515267 685.52968701 179.4375 657.3125 C180.04658203 656.88340332 180.65566406 656.45430664 181.28320312 656.01220703 C201.19994127 641.8580293 221.00868257 624.21743464 236.2109375 605.09375 C238.45219102 602.29414911 240.78312055 599.59066477 243.125 596.875 C259.09267759 577.66427471 271.94616139 555.94562378 282.4375 533.3125 C282.75638184 532.62639648 283.07526367 531.94029297 283.40380859 531.23339844 C302.02080555 490.55900567 310.65651489 446.10450461 310.6875 401.5625 C310.68850708 400.55872314 310.68951416 399.55494629 310.69055176 398.52075195 C310.6803894 383.54621561 310.11184794 369.07795377 307.4375 354.3125 C307.13233867 352.48054762 306.82765863 350.648515 306.5234375 348.81640625 C304.72779716 338.41854667 302.22130251 328.39076569 299.05224609 318.33349609 C298.45298114 316.36339471 297.9143907 314.38691124 297.39453125 312.39453125 C286.37536852 270.84703569 262.50650483 232.45258187 234.4375 200.3125 C233.74785156 199.51070313 233.05820312 198.70890625 232.34765625 197.8828125 C221.69156163 185.73363744 210.20056194 174.23132529 197.4375 164.3125 C196.33448193 163.40046028 195.23440035 162.4848617 194.13671875 161.56640625 C157.2361289 130.91775704 111.96274968 111.61552607 65.4375 101.3125 C64.57560059 101.12123535 63.71370117 100.9299707 62.82568359 100.73291016 C50.4402553 98.04165636 38.17556644 96.58212837 25.53515625 95.70703125 C14.45932743 94.89230826 14.45932743 94.89230826 9.4375 89.3125 C6.33701072 87.76225536 3.85855782 88.02257985 0.4375 88.3125 C-2.95189556 90.44929285 -4.28832557 91.4899767 -5.5625 95.3125 C-8.8625 95.6425 -12.1625 95.9725 -15.5625 96.3125 C-15.9646875 94.889375 -15.9646875 94.889375 -16.375 93.4375 C-17.31236588 90.05982727 -17.31236588 90.05982727 -20.5625 88.3125 C-25.46569876 87.53486414 -29.33052297 87.25651969 -33.1875 90.5625 Z " fill="#135084" transform="translate(513.5625,100.6875)"/>
  <path d="M0 0 C7.38461538 -0.36923077 7.38461538 -0.36923077 10.5 1.5 C10.995 1.995 11.49 2.49 12 3 C11.525625 3.969375 11.05125 4.93875 10.5625 5.9375 C8.71918545 10.26755022 8.28899836 14.33800011 8 19 C7.88914062 19.84175781 7.77828125 20.68351562 7.6640625 21.55078125 C7.42591807 24.25659468 7.36558583 26.35296156 8 29 C9.91011673 31.2277729 11.8565021 32.83610478 14.25 34.52734375 C14.8275 35.01332031 15.405 35.49929687 16 36 C16 36.99 16 37.98 16 39 C16.928125 38.0409375 16.928125 38.0409375 17.875 37.0625 C20.50215944 34.45773112 23.1719221 31.90089444 25.875 29.375 C26.67679688 28.61960938 27.47859375 27.86421875 28.3046875 27.0859375 C35.89315439 21.21312399 42.79083238 21.56758521 52.125 21.6875 C54.01798828 21.68266602 54.01798828 21.68266602 55.94921875 21.67773438 C66.15244397 21.73724417 66.15244397 21.73724417 71 24 C69.53206864 35.40599538 62.56581528 46.62695592 53.69921875 53.8828125 C45.7646629 59.40366312 38.64279928 60.91324561 29 60 C26.6328125 58.984375 26.6328125 58.984375 25 58 C25.30292969 58.66902344 25.60585938 59.33804688 25.91796875 60.02734375 C28.61720294 66.21481905 30.87523162 72.41204768 32.8125 78.875 C33.14060669 79.94415649 33.14060669 79.94415649 33.4753418 81.03491211 C34.66865537 85.13059481 35.23380707 88.73803104 35 93 C34.38511719 93.10054688 33.77023437 93.20109375 33.13671875 93.3046875 C30.44674974 93.93105987 28.37520633 94.57403243 26 96 C24.29538033 99.21442566 23.6551553 102.44344266 23 106 C22.67 106.99 22.34 107.98 22 109 C21.31146416 115.41050606 23.22386759 119.07908983 26.4375 124.375 C26.85837891 125.09816406 27.27925781 125.82132812 27.71289062 126.56640625 C29.58956509 129.97862425 29.58956509 129.97862425 32 133 C34.97 133 37.94 133 41 133 C41 138.94 41 144.88 41 151 C37.71223958 151.94401042 34.42447917 152.88802083 31.13671875 153.83203125 C28.08835959 154.96709898 26.9323026 155.49838999 25 158 C24.55554468 160.1992171 24.55554468 160.1992171 24.63671875 162.6484375 C24.63478516 164.0243103 24.63478516 164.0243103 24.6328125 165.42797852 C24.65085937 166.40049561 24.66890625 167.3730127 24.6875 168.375 C24.70167969 169.36491943 24.71585938 170.35483887 24.73046875 171.37475586 C24.79063585 174.25173024 24.88527975 177.12472628 25 180 C25.03988037 181.10093994 25.03988037 181.10093994 25.08056641 182.22412109 C25.33714793 189.16776739 25.33714793 189.16776739 28.84375 194.85546875 C30.8598009 196.15932776 32.769151 197.12625081 35 198 C35.66 198.33 36.32 198.66 37 199 C36.85820962 201.22942748 36.71140302 203.45853628 36.5625 205.6875 C36.48128906 206.92886719 36.40007812 208.17023438 36.31640625 209.44921875 C36.05508683 212.38180337 35.65201621 215.13441617 35 218 C31.875 217.47916667 28.75 216.95833333 25.625 216.4375 C24.75875 216.293125 23.8925 216.14875 23 216 C19.56350974 220.08083218 16.77930327 224.40218239 14 228.9375 C13.14671078 230.32215569 12.29255637 231.70627862 11.4375 233.08984375 C11.03015625 233.75870605 10.6228125 234.42756836 10.203125 235.11669922 C9 237 9 237 6.6875 240.00390625 C4.54555111 243.80685718 4.56737227 246.79052284 5 251 C5.12157471 252.18746826 5.12157471 252.18746826 5.24560547 253.39892578 C6.43379435 264.18549152 6.43379435 264.18549152 11.05859375 273.71484375 C13.30528134 275.44627078 15.4480692 276.77031314 18 278 C20.33636934 279.21338937 21.95584319 280.27032885 24 282 C24.90036678 288.41511328 23.29657889 294.7023311 22 301 C17.66790107 300.27671459 14.27515892 298.79842514 10.37890625 296.83984375 C7.32660565 295.76226636 5.21402074 295.54206565 2 296 C-0.22395678 298.00341247 -0.22395678 298.00341247 -1.9375 300.8125 C-2.61554688 301.81796875 -3.29359375 302.8234375 -3.9921875 303.859375 C-4.65476562 304.89578125 -5.31734375 305.9321875 -6 307 C-6.60070312 307.93328125 -7.20140625 308.8665625 -7.8203125 309.828125 C-8.97625086 311.64237804 -10.12478008 313.46137434 -11.265625 315.28515625 C-13.57681112 318.90289128 -16.03599395 322.40542855 -18.51953125 325.90625 C-21.93925872 330.7425928 -22.94029561 334.11602896 -22 340 C-20.4766175 344.05541365 -18.46981349 347.77648366 -16.375 351.5625 C-15.85292969 352.55185547 -15.33085937 353.54121094 -14.79296875 354.56054688 C-9.63736484 364.9502079 -9.63736484 364.9502079 -1.25 372.375 C7.99329211 371.30846629 16.37722167 363.0363865 23 357 C23.66 356.01 24.32 355.02 25 354 C28.73724772 354.55153215 30.2235991 355.96149761 32.625 358.8125 C33.51058594 359.84310547 33.51058594 359.84310547 34.4140625 360.89453125 C35.89910579 362.86605423 36.98239206 364.75823992 38 367 C26.34598338 376.19372422 14.54585977 385.18584228 2.14038086 393.34667969 C-2.60804446 396.49268391 -2.60804446 396.49268391 -6 401 C-5.77844824 407.75732859 -4.13694998 414.26583903 -2.75 420.8671875 C-1.75749413 425.95500842 -1.27560804 431.1093331 -0.91040039 436.27734375 C-0.46378325 441.13728158 0.72219163 443.45373544 4 447 C7.8755637 449.73159169 12.04488967 451.94828452 16.1875 454.25 C17.28642578 454.88679688 18.38535156 455.52359375 19.51757812 456.1796875 C28.22297783 461.39641364 28.22297783 461.39641364 38 462 C43.83865584 458.03588253 47.04046654 449.98678027 50.25 443.9375 C50.80776123 442.89851563 51.36552246 441.85953125 51.94018555 440.7890625 C57.44080822 430.41058835 62.32240109 419.77051247 67 409 C67.66 409 68.32 409 69 409 C70.3671875 411.01171875 70.3671875 411.01171875 71.875 413.6875 C73.59742069 416.69221423 75.15967752 419.18424329 77.4375 421.8125 C79 424 79 424 78.7578125 426.21484375 C77.86554982 429.49413906 76.67227556 432.58390883 75.4375 435.75 C72.38857991 443.72106284 72.38857991 443.72106284 73 452 C75.32592918 454.66630906 77.09294539 456.08481779 80 458 C81.04671875 458.71542969 82.0934375 459.43085937 83.171875 460.16796875 C86.35846156 462.3294811 89.57494607 464.44293493 92.796875 466.55126953 C95.17467487 468.11486267 97.54144675 469.69416728 99.90625 471.27734375 C101.13057739 472.0969458 101.13057739 472.0969458 102.37963867 472.93310547 C103.98159336 474.00600518 105.58332448 475.07923878 107.18481445 476.15283203 C107.914021 476.63993652 108.64322754 477.12704102 109.39453125 477.62890625 C110.04268799 478.06275635 110.69084473 478.49660645 111.35864258 478.94360352 C115.01692138 481.29811376 117.64149793 481.52602611 122 481 C126.2621974 476.05486363 127.59996156 470.33789983 129.25 464.125 C129.518125 463.15046875 129.78625 462.1759375 130.0625 461.171875 C130.71807237 458.78371851 131.36356832 456.39331471 132 454 C133.60198928 454.47381986 135.20345086 454.9494241 136.8046875 455.42578125 C138.14249268 455.82277222 138.14249268 455.82277222 139.50732422 456.2277832 C142.067828 457.02101273 144.54022623 457.93409803 147 459 C147.63643153 466.86048761 144.79951739 473.80365265 142.40039062 481.1953125 C139.62506065 490.03315634 139.62506065 490.03315634 141.879776 498.81204224 C144.20744124 502.28123062 145.98191919 503.79077162 150.13948059 504.64520264 C154.22042483 504.89290556 158.25022102 504.9177406 162.3359375 504.8671875 C163.85846682 504.8740476 165.38098468 504.88412448 166.9034729 504.89724731 C170.91228765 504.92380599 174.91991786 504.9096158 178.92871094 504.88592529 C183.74705849 504.86440623 188.56533564 504.8886631 193.38366127 504.90797615 C197.14545648 504.92242221 200.90674975 504.93003147 204.66854858 504.91378784 C211.78189675 504.89229426 218.87446672 505.00521118 225.97900391 505.37939453 C226.6695455 505.40998396 227.36008709 505.44057339 228.07155418 505.47208977 C229.72073274 505.57217759 231.36300238 505.77628976 233 506 C233.33 506.66 233.66 507.32 234 508 C225.57133045 518.14505317 216.08118952 527.50566439 206 536 C204.67742187 537.17369141 204.67742187 537.17369141 203.328125 538.37109375 C189.50407039 550.53878922 174.09323183 561.06219775 158 570 C157.19320801 570.45052734 156.38641602 570.90105469 155.55517578 571.36523438 C140.20456442 579.85525314 124.39522994 586.78413855 108 593 C107.16662109 593.31694824 106.33324219 593.63389648 105.47460938 593.96044922 C72.8184106 606.15387511 37.78950588 610.18779273 3.16357422 610.18530273 C-0.22831845 610.18748604 -3.61988346 610.20568666 -7.01171875 610.22460938 C-19.16780684 610.2564744 -30.97995744 609.84354952 -43 608 C-43.97743164 607.85925049 -44.95486328 607.71850098 -45.96191406 607.57348633 C-101.49814325 599.18123054 -157.30715794 574.25492257 -198.75 536.06640625 C-200.7344682 534.24386514 -202.75785892 532.49216442 -204.8125 530.75 C-208.66113347 527.39234446 -212.30533198 523.83822852 -215.9375 520.25 C-216.80822144 519.39873535 -216.80822144 519.39873535 -217.6965332 518.53027344 C-221.88193311 514.35420068 -221.88193311 514.35420068 -223 511 C-217.72284552 510.12977525 -212.62520727 509.82700608 -207.28125 509.796875 C-206.44326874 509.78981537 -205.60528748 509.78275574 -204.74191284 509.77548218 C-154.93662188 509.45406196 -106.66030587 515.60491608 -58 526 C-57.57653201 515.26398489 -61.66906674 508.62385042 -67.625 500.25 C-68.43050997 499.07306584 -69.23390916 497.89468417 -70.03515625 496.71484375 C-73.94588464 491.01673641 -77.93946601 485.62789387 -82.89599609 480.77246094 C-84 479 -84 479 -83.7800293 476.47680664 C-82.76031822 473.23894471 -81.19168491 470.58987866 -79.4375 467.6875 C-78.79683594 466.61886719 -78.15617188 465.55023437 -77.49609375 464.44921875 C-77.00238281 463.64097656 -76.50867188 462.83273437 -76 462 C-72.65373965 463.39693448 -71.08981053 464.86140574 -69.08203125 467.859375 C-68.55375732 468.63933838 -68.0254834 469.41930176 -67.48120117 470.22290039 C-66.93052979 471.05684326 -66.3798584 471.89078613 -65.8125 472.75 C-64.95845581 474.02315063 -64.95845581 474.02315063 -64.0871582 475.32202148 C-62.3806916 477.87440008 -60.68865054 480.43580882 -59 483 C-58.26668457 484.10529053 -58.26668457 484.10529053 -57.51855469 485.23291016 C-50 496.58040805 -50 496.58040805 -50 499 C-49.34 499 -48.68 499 -48 499 C-47.63648438 497.97132813 -47.63648438 497.97132813 -47.265625 496.921875 C-45.76471824 493.45681866 -43.81944087 490.39222794 -41.75 487.25 C-41.38003906 486.68023438 -41.01007813 486.11046875 -40.62890625 485.5234375 C-40.25121094 484.94335938 -39.87351562 484.36328125 -39.484375 483.765625 C-39.08943848 483.15114502 -38.69450195 482.53666504 -38.28759766 481.90356445 C-37 480 -37 480 -35.53662109 478.18041992 C-30.27079351 471.30255282 -28.64470338 463.55053846 -26.70214844 455.26977539 C-26.12277316 452.80301897 -25.51682999 450.3439646 -24.90625 447.88476562 C-24.52188251 446.30506505 -24.13901662 444.72499818 -23.7578125 443.14453125 C-23.57977081 442.4162764 -23.40172913 441.68802155 -23.21829224 440.93769836 C-22.27731889 436.89317464 -21.62724742 433.1518128 -22 429 C-23.94325472 426.6156295 -23.94325472 426.6156295 -27.50390625 426.78125 C-32.38637674 426.90438368 -37.12705251 427.70757006 -41.9375 428.5 C-51.36673623 429.96580163 -60.47661936 430.33700036 -70 430 C-70.50604924 427.60530271 -71.00499517 425.20948283 -71.5 422.8125 C-71.64308594 422.13896484 -71.78617188 421.46542969 -71.93359375 420.77148438 C-72.68434755 417.10709081 -73.06757689 413.73080767 -73 410 C-72.00202393 410.0314209 -72.00202393 410.0314209 -70.98388672 410.06347656 C-67.94774698 410.14700609 -64.91184957 410.19877603 -61.875 410.25 C-60.30492187 410.30027344 -60.30492187 410.30027344 -58.703125 410.3515625 C-52.52007585 410.42982894 -48.79085166 410.27025017 -44 406 C-43.30036133 405.37706055 -42.60072266 404.75412109 -41.87988281 404.11230469 C-39.42761909 401.87644692 -37.05570914 399.57452926 -34.6875 397.25 C-33.45290039 396.08984375 -33.45290039 396.08984375 -32.19335938 394.90625 C-31.41154297 394.13796875 -30.62972656 393.3696875 -29.82421875 392.578125 C-29.11354248 391.89137695 -28.40286621 391.20462891 -27.6706543 390.49707031 C-25.41787608 387.12991912 -24.86373659 383.97779923 -25 380 C-25.94488514 376.34141472 -25.94488514 376.34141472 -27.60546875 372.7890625 C-27.88594559 372.13602142 -28.16642242 371.48298035 -28.45539856 370.81015015 C-29.34878893 368.7403762 -30.26719296 366.6829256 -31.1875 364.625 C-32.08130879 362.57744452 -32.96990603 360.52768163 -33.85818481 358.47772217 C-34.43633372 357.15135558 -35.02016029 355.82744835 -35.60983276 354.50616455 C-37.26447407 350.78892226 -38.67834591 347.06040082 -39.98828125 343.2109375 C-41.39796727 339.6464828 -41.75870915 339.14424997 -45.234375 337.06640625 C-46.47703125 336.71449219 -47.7196875 336.36257813 -49 336 C-50.36362527 335.4997175 -51.72296155 334.98761376 -53.078125 334.46484375 C-55.18051258 333.69225583 -57.284677 332.92493908 -59.390625 332.16210938 C-62.54041197 331.00181853 -65.19298719 329.87134187 -68 328 C-67.45484328 320.91296261 -65.39081395 314.67203894 -63 308 C-58.86132492 308.57990285 -55.26895225 309.5660638 -51.375 311.0625 C-45.33845423 313.11477521 -39.33450588 314.25035239 -33 313 C-28.61105882 310.18342092 -25.68200707 306.34616749 -22.5625 302.25 C-21.84235718 301.31728271 -21.84235718 301.31728271 -21.10766602 300.36572266 C-19.73279816 298.58139391 -18.36606856 296.79106767 -17 295 C-16.34773437 294.15695312 -15.69546875 293.31390625 -15.0234375 292.4453125 C-7.184265 282.21190998 -8.89795642 273.20176675 -10.11694336 260.72338867 C-10.31367578 258.67525924 -10.4918356 256.62599615 -10.66992188 254.57617188 C-10.79560547 253.27615234 -10.92128906 251.97613281 -11.05078125 250.63671875 C-11.16075439 249.45811279 -11.27072754 248.27950684 -11.3840332 247.06518555 C-12.03066678 243.84739539 -12.65982969 242.27907463 -15 240 C-17.72068035 239.5638604 -20.08634603 239.34957372 -22.8125 239.3125 C-27.61736619 239.16636121 -32.26644306 238.91401492 -37 238 C-36.34309381 234.21760329 -35.279869 230.78158474 -33.9375 227.1875 C-33.57527344 226.21167969 -33.21304688 225.23585938 -32.83984375 224.23046875 C-32.56269531 223.49441406 -32.28554688 222.75835937 -32 222 C-30.39560059 221.80422363 -30.39560059 221.80422363 -28.75878906 221.60449219 C-24.78318231 221.1147673 -20.81074576 220.60252258 -16.83886719 220.08349609 C-15.1208968 219.86218833 -13.40213179 219.64695934 -11.68261719 219.43798828 C-9.20793315 219.13616266 -6.73695099 218.81243378 -4.265625 218.484375 C-3.49881409 218.39565125 -2.73200317 218.30692749 -1.94195557 218.21551514 C2.6444687 217.58016799 5.16584958 216.72575302 8 213 C9.68319638 209.63360724 9.16316848 205.82759311 9.16796875 202.125 C9.17129715 201.24473145 9.17462555 200.36446289 9.17805481 199.45751953 C9.18312167 197.59473189 9.18546321 195.73193515 9.18530273 193.86914062 C9.18749114 191.01156774 9.20565453 188.15437963 9.22460938 185.296875 C9.2275429 183.48958466 9.22952797 181.68229248 9.23046875 179.875 C9.24124702 178.58746826 9.24124702 178.58746826 9.25224304 177.27392578 C9.45117728 172.65788473 9.45117728 172.65788473 7 169 C4.56589679 168.90919089 4.56589679 168.90919089 1.7734375 169.2421875 C0.7421875 169.33886719 -0.2890625 169.43554688 -1.3515625 169.53515625 C-2.97191406 169.70337891 -2.97191406 169.70337891 -4.625 169.875 C-5.71296875 169.97941406 -6.8009375 170.08382812 -7.921875 170.19140625 C-10.61567348 170.45133417 -13.30809314 170.72126534 -16 171 C-14 159 -14 159 -13.50097656 156.40795898 C-12.47910619 150.86851608 -11.86573539 145.51385406 -11.71875 139.87890625 C-11.66074219 138.07583008 -11.66074219 138.07583008 -11.6015625 136.23632812 C-11.53311698 133.76044318 -11.4973395 131.28346611 -11.4921875 128.80664062 C-11.34729815 125.2778224 -11.13598753 122.34700294 -10 119 C-6.96288307 116.42413394 -3.71709183 115.31671165 0 114 C7.6756267 108.71031546 13.39467784 102.04625749 16 93 C16.61079556 87.66298758 16.36636765 82.34625389 16 77 C15.72736328 78.19496094 15.72736328 78.19496094 15.44921875 79.4140625 C12.95892035 89.91162805 9.67136042 98.23027459 0.5546875 104.5078125 C-4.68189138 107.67904194 -10.26397897 108.96671018 -16.1875 110.3125 C-17.292146 110.5717627 -18.39679199 110.83102539 -19.53491211 111.09814453 C-27.14039566 112.79895123 -34.19775921 113.83761631 -42 113 C-41.95875 111.88625 -41.9175 110.7725 -41.875 109.625 C-41.58878141 105.95633975 -41.58878141 105.95633975 -44 104 C-49.58717827 103.3716013 -49.58717827 103.3716013 -54.4375 105.6875 C-56.13377824 108.1979918 -56.49601021 110.04945782 -57 113 C-58.00160156 113.09796875 -59.00320313 113.1959375 -60.03515625 113.296875 C-70.48522321 114.42590234 -76.44214614 116.67197076 -84.37890625 123.671875 C-88.36903518 126.94089629 -91.97097836 127.23390798 -97 127 C-94.4683447 124.4683447 -91.93701106 121.9385108 -89.375 119.4375 C-87.36332704 117.37288828 -85.6956394 115.31802728 -84 113 C-84.99 113.68707031 -85.98 114.37414062 -87 115.08203125 C-88.33303445 115.9926252 -89.6663848 116.90275681 -91 117.8125 C-91.64839844 118.26431641 -92.29679688 118.71613281 -92.96484375 119.18164062 C-99.81487528 123.82745409 -106.56938426 127.1240821 -115 126 C-117.5625 124.0625 -117.5625 124.0625 -119 121 C-119.13682673 114.66507976 -117.24805897 109.08609983 -114.5625 103.4375 C-114.21123047 102.69588623 -113.85996094 101.95427246 -113.49804688 101.19018555 C-110.21082464 94.68816896 -106.09329347 90.94115639 -100 87 C-81.42443454 73.84085177 -67.7637681 57.91516039 -57.08251953 37.98632812 C-50.50714694 25.92109777 -50.50714694 25.92109777 -45 24 C-39.82036341 23.20937054 -35.99914452 23.79353266 -31.3125 26.125 C-28.35764854 27.54884034 -27.34115 28.03553646 -24 27.6875 C-12.30627233 21.10977818 -6.11293401 11.66246396 0 0 Z " fill="#F6B945" transform="translate(510,204)"/>
  <path d="M0 0 C3.05714971 0.01091224 6.11425521 0.01046509 9.17142105 0.00986195 C12.17959803 0.01013673 15.18774752 0.01566388 18.19591522 0.02286339 C19.60056096 0.02598055 21.00520971 0.02800055 22.4098587 0.0287571 C29.92883959 0.03727 37.43275209 0.18960423 44.94122314 0.58111572 C45.98268431 0.62642913 45.98268431 0.62642913 47.04518509 0.67265797 C48.71105917 0.77162859 50.37019621 0.97403096 52.02423096 1.19561768 C52.35423096 1.85561768 52.68423096 2.51561768 53.02423096 3.19561768 C44.5955614 13.34067085 35.10542047 22.70128206 25.02423096 31.19561768 C23.70165283 32.36930908 23.70165283 32.36930908 22.35235596 33.56671143 C8.52830135 45.7344069 -6.88253721 56.25781542 -22.97576904 65.19561768 C-23.78256104 65.64614502 -24.58935303 66.09667236 -25.42059326 66.56085205 C-40.77120462 75.05087081 -56.5805391 81.97975623 -72.97576904 88.19561768 C-73.80914795 88.51256592 -74.64252686 88.82951416 -75.50115967 89.15606689 C-108.15735844 101.34949279 -143.18626317 105.38341041 -177.81219482 105.38092041 C-181.20408749 105.38310372 -184.5956525 105.40130434 -187.98748779 105.42022705 C-200.14357589 105.45209207 -211.95572648 105.0391672 -223.97576904 103.19561768 C-225.4419165 102.98449341 -225.4419165 102.98449341 -226.93768311 102.769104 C-282.4739123 94.37684822 -338.28292699 69.45054025 -379.72576904 31.26202393 C-381.71023725 29.43948281 -383.73362796 27.68778209 -385.78826904 25.94561768 C-389.63690251 22.58796214 -393.28110102 19.03384619 -396.91326904 15.44561768 C-397.49375 14.87810791 -398.07423096 14.31059814 -398.67230225 13.72589111 C-402.85770215 9.54981835 -402.85770215 9.54981835 -403.97576904 6.19561768 C-398.69861457 5.32539293 -393.60097631 5.02262376 -388.25701904 4.99249268 C-387.41903778 4.98543304 -386.58105652 4.97837341 -385.71768188 4.97109985 C-331.80950575 4.62320151 -261.4905792 5.86543974 -211.45233154 28.32843018 C-204.70343444 30.69160866 -198.72627277 28.77315119 -192.28826904 26.50811768 C-182.85327774 23.36497877 -173.34512233 20.99216744 -163.64959717 18.80450439 C-161.00920097 18.20323083 -158.37509221 17.57942821 -155.74139404 16.94952393 C-129.4500555 10.72096908 -102.76939426 6.48812234 -75.91326904 3.63311768 C-74.84600586 3.51822998 -73.77874268 3.40334229 -72.67913818 3.28497314 C-68.78080081 2.88713164 -64.87948155 2.5353653 -60.97576904 2.19561768 C-60.04327332 2.11163727 -59.11077759 2.02765686 -58.15002441 1.94113159 C-38.73425818 0.2311174 -19.47238752 -0.08773002 0 0 Z " fill="#449246" transform="translate(690.9757690429688,708.8043823242188)"/>
  <path d="M0 0 C2.60424116 -0.02747734 5.20818042 -0.04706373 7.8125 -0.0625 C8.53115234 -0.07087891 9.24980469 -0.07925781 9.99023438 -0.08789062 C15.08315488 -0.1103264 20.06114494 0.25366461 25.12768555 0.75268555 C31.0636217 1.26378655 37.02640719 1.35760662 42.98046875 1.51757812 C60.49294837 2.1057666 77.86732278 4.67153233 95.1875 7.1875 C96.23193268 7.33895477 97.27636536 7.49040955 98.35244751 7.64645386 C122.92647822 11.2406379 146.99207105 16.08509619 170.77685547 23.33105469 C172.8568079 23.95691343 174.94233279 24.55167336 177.03515625 25.1328125 C213.56347038 35.34828147 249.19442273 49.89196973 283 67 C283 67.66 283 68.32 283 69 C272.99729957 71.61909148 262.96976836 73.60662268 252.75 75.1875 C251.68668457 75.35411133 250.62336914 75.52072266 249.52783203 75.69238281 C234.71275142 77.91612892 220.11927549 78.18637822 205.16357422 78.18530273 C201.77168155 78.18748604 198.38011654 78.20568666 194.98828125 78.22460938 C182.83219316 78.2564744 171.02004256 77.84354952 159 76 C157.53385254 75.78887573 157.53385254 75.78887573 156.03808594 75.57348633 C108.7182888 68.42284166 62.62667045 49.1144062 24 21 C23.3723877 20.54351074 22.74477539 20.08702148 22.09814453 19.61669922 C14.32399689 13.90912412 6.8521925 7.7972651 0 1 C0 0.67 0 0.34 0 0 Z " fill="#93BB48" transform="translate(308,736)"/>
  <path d="M0 0 C0 2 0 2 -1.29296875 3.33984375 C-1.91816406 3.86707031 -2.54335938 4.39429688 -3.1875 4.9375 C-3.92871094 5.56398438 -4.66992188 6.19046875 -5.43359375 6.8359375 C-6.28050781 7.55007813 -7.12742187 8.26421875 -8 9 C-8.89847656 9.79664063 -9.79695312 10.59328125 -10.72265625 11.4140625 C-33.82554681 31.76068442 -61.35815726 47.61990743 -89.5625 59.75 C-90.32916992 60.08523682 -91.09583984 60.42047363 -91.88574219 60.76586914 C-92.60536133 61.06485107 -93.32498047 61.36383301 -94.06640625 61.671875 C-94.68459229 61.9306543 -95.30277832 62.18943359 -95.93969727 62.45605469 C-100.9970519 63.79125864 -104.70844518 63.02097168 -109.2734375 60.65625 C-110.2538501 60.15617432 -111.2342627 59.65609863 -112.24438477 59.14086914 C-113.27748779 58.59938232 -114.31059082 58.05789551 -115.375 57.5 C-116.45644287 56.94755615 -117.53788574 56.3951123 -118.65209961 55.82592773 C-123.12975439 53.53684402 -127.59008111 51.21570881 -132.04296875 48.87890625 C-150.79818597 39.19946562 -170.70346572 31.17961621 -190.66455078 24.359375 C-191.90954346 23.92818359 -191.90954346 23.92818359 -193.1796875 23.48828125 C-193.89882324 23.24634033 -194.61795898 23.00439941 -195.35888672 22.75512695 C-197 22 -197 22 -198 20 C-189.52430968 16.82764264 -180.79890621 15.2350759 -171.9375 13.5625 C-170.30517528 13.25154887 -168.67285106 12.94059507 -167.04052734 12.62963867 C-163.05956925 11.87431965 -159.07669266 11.12974736 -155.09283447 10.38989258 C-153.25830166 10.04812129 -151.42472298 9.70123667 -149.59130859 9.35351562 C-130.93966185 5.83957127 -112.08846713 3.95536849 -93.20343018 2.20568848 C-91.21177221 2.01976877 -89.22082686 1.82625352 -87.22998047 1.63183594 C-58.29505506 -1.10984134 -29.03289482 -0.18882975 0 0 Z " fill="#92BB48" transform="translate(724,731)"/>
  <path d="M0 0 C10.62752696 4.44469002 17.7718422 16.39149378 23 26 C23.74074238 27.23446084 24.48163111 28.46883388 25.22265625 29.703125 C27.86148133 34.33257974 30.25156831 38.62208046 29.671875 44.1015625 C28.65065518 46.88474608 27.45364195 49.44564954 26.03320312 52.04589844 C24.84824951 54.28700637 23.80654526 56.57133114 22.765625 58.8828125 C18.79262444 67.63696354 14.51926147 76.18662234 9.6875 84.5 C9.29151611 85.18739258 8.89553223 85.87478516 8.48754883 86.58300781 C6.10285457 90.57668256 3.83689318 94.27250471 0 97 C-7.91876087 98.3351339 -15.22509148 93.08219097 -21.75 89.3125 C-23.41482422 88.39307617 -23.41482422 88.39307617 -25.11328125 87.45507812 C-36.00588567 81.27473759 -36.00588567 81.27473759 -39 76 C-39.90732037 72.33624923 -40.28823447 68.69176699 -40.625 64.9375 C-40.84636752 62.87313423 -41.07290149 60.80931571 -41.3046875 58.74609375 C-41.41522461 57.75593262 -41.52576172 56.76577148 -41.63964844 55.74560547 C-42.10028889 52.23587479 -42.86249287 48.92609736 -43.75 45.5 C-44.85780913 40.9675121 -45.66022165 37.51949228 -44 33 C-39.72857928 28.56073007 -34.47810981 25.1489278 -29.375 21.75 C-22.01544645 16.77253658 -14.99858548 11.47092699 -8 6 C-5.34321057 3.98630634 -2.67324636 1.99183062 0 0 Z " fill="#C07C31" transform="translate(548,570)"/>
  <path d="M0 0 C4.86618937 1.61178063 9.71926301 3.25822918 14.5625 4.9375 C15.30435547 5.18951172 16.04621094 5.44152344 16.81054688 5.70117188 C17.53435547 5.95318359 18.25816406 6.20519531 19.00390625 6.46484375 C19.97565796 6.79923462 19.97565796 6.79923462 20.96704102 7.14038086 C24.63297346 8.69048872 27.34608491 9.84453838 29.35791016 13.39941406 C29.70644043 14.34526367 30.0549707 15.29111328 30.4140625 16.265625 C30.8255957 17.33619141 31.23712891 18.40675781 31.66113281 19.50976562 C32.10295898 20.66154297 32.54478516 21.81332031 33 23 C33.77356522 24.79924082 34.54741687 26.59841305 35.33685303 28.39074707 C36.42891033 30.87150836 37.49355985 33.36370776 38.55908203 35.85595703 C39.10731797 37.12861244 39.66211978 38.39845763 40.22314453 39.66552734 C46.20704408 53.20986049 46.20704408 53.20986049 45.06347656 58.03710938 C42.63187092 62.52519693 38.84291498 65.98212962 35.17211914 69.46582031 C33.68593166 70.87648864 32.22539487 72.31008412 30.76757812 73.75 C21.00718251 83.24660114 21.00718251 83.24660114 13.30273438 83.22460938 C12.60470703 83.21236328 11.90667969 83.20011719 11.1875 83.1875 C10.15786133 83.1865332 10.15786133 83.1865332 9.10742188 83.18554688 C4.66918757 83.1477568 0.37091081 82.84419116 -4 82 C-11.88741335 72.3199927 -8.94839588 43.49581374 -7.765625 31.65332031 C-6.41892916 21.49551255 -4.59178039 9.18356078 0 0 Z " fill="#C07C32" transform="translate(441,532)"/>
  <path d="M0 0 C3.75134554 0.02280861 7.49964642 0.10012617 11.25 0.1875 C12.31347656 0.19330078 13.37695312 0.19910156 14.47265625 0.20507812 C16.00986328 0.24858398 16.00986328 0.24858398 17.578125 0.29296875 C18.99206543 0.31653442 18.99206543 0.31653442 20.43457031 0.34057617 C24.08453856 1.27877223 25.08256042 2.80526152 27 6 C27.72949219 9.17871094 27.72949219 9.17871094 28.046875 12.734375 C28.16933594 14.03117187 28.29179687 15.32796875 28.41796875 16.6640625 C28.5286905 18.02603804 28.63936729 19.38801723 28.75 20.75 C28.87479548 22.09649465 29.00108488 23.44285172 29.12890625 24.7890625 C30.43322173 39.265531 30.60450002 47.08666261 21.10546875 58.53515625 C18.58802336 61.51184423 16.02181623 64.44264884 13.43310547 67.35742188 C12.00279172 68.99680022 10.62643312 70.67150392 9.25390625 72.359375 C6.93798945 75.07265014 6.21107282 75.83185456 2.77734375 76.30859375 C-7.02676123 76.7536219 -15.04313481 73.56576624 -24 70 C-21.98708173 61.0646067 -19.20490428 52.57443243 -16 44 C-15.72027344 43.236875 -15.44054687 42.47375 -15.15234375 41.6875 C-14.16921139 39.02283525 -13.15664014 36.37843732 -12.0703125 33.75390625 C-9.66148375 27.91856528 -7.75121787 22.03127499 -5.94140625 15.984375 C-4.8476623 12.51707053 -3.48783379 9.31381162 -2 6 C-1.32088773 4.00419165 -0.65243018 2.00468933 0 0 Z " fill="#C07C32" transform="translate(472,442)"/>
  <path d="M0 0 C8.41486896 1.59420282 15.99927266 13.45227246 20.66046143 20.14355469 C21.48510018 21.35705658 22.30446707 22.57415788 23.11849976 23.7947998 C24.37363332 25.66719997 25.66512729 27.5106507 26.96054077 29.35534668 C27.77726577 30.55693061 28.59180609 31.76000308 29.40390015 32.96472168 C30.1287561 34.03109863 30.85361206 35.09747559 31.60043335 36.19616699 C33.37325706 40.12348693 33.0499351 42.25166603 32.0406189 46.38659668 C30.88046265 49.23425293 30.88046265 49.23425293 29.0406189 51.38659668 C26.16952515 52.32019043 26.16952515 52.32019043 22.6031189 52.82409668 C16.14090403 53.87389463 9.98434104 55.45984244 3.7281189 57.38659668 C2.51200928 57.76062622 2.51200928 57.76062622 1.27133179 58.14221191 C-2.0325511 59.16417995 -5.33522174 60.18944872 -8.63296509 61.2310791 C-9.94696289 61.63870483 -9.94696289 61.63870483 -11.2875061 62.05456543 C-12.07673462 62.30230713 -12.86596313 62.55004883 -13.67910767 62.80529785 C-17.26257677 63.71881391 -20.27393557 63.70988138 -23.9593811 63.38659668 C-27.20721768 61.2213723 -27.41950758 60.83366983 -28.4593811 57.32409668 C-29.56423356 53.67487278 -29.56423356 53.67487278 -30.81484985 50.07409668 C-31.08942017 49.33159668 -31.36399048 48.58909668 -31.6468811 47.82409668 C-31.89824829 47.16280762 -32.14961548 46.50151855 -32.40859985 45.82019043 C-33.58887399 40.60522031 -33.74406129 36.87278819 -31.2640686 32.17565918 C-30.46227173 31.13151855 -29.66047485 30.08737793 -28.8343811 29.01159668 C-28.39859741 28.43433838 -27.96281372 27.85708008 -27.51382446 27.2623291 C-26.01457639 25.28851385 -24.4869967 23.33852454 -22.9593811 21.38659668 C-21.73286448 19.78729888 -20.50765741 18.18699611 -19.28359985 16.58581543 C-16.85413517 13.42380463 -14.41927106 10.26634905 -11.96328735 7.12487793 C-11.45612183 6.47559326 -10.9489563 5.82630859 -10.42642212 5.15734863 C-9.94229858 4.57300049 -9.45817505 3.98865234 -8.9593811 3.38659668 C-8.56742554 2.81449463 -8.17546997 2.24239258 -7.77163696 1.6529541 C-5.28103494 -0.08741404 -2.98025144 -0.12405483 0 0 Z " fill="#C07C32" transform="translate(505.9593811035156,675.6134033203125)"/>
  <path d="M0 0 C6.51647131 0.64001058 11.52100519 2.94645629 17.1875 6.15234375 C17.1153125 6.94511719 17.043125 7.73789062 16.96875 8.5546875 C16.29575457 17.01386622 15.96794968 25.48092661 15.8125 33.96484375 C15.77447266 35.01341553 15.73644531 36.0619873 15.69726562 37.14233398 C15.62574111 43.80305446 16.67952066 48.26095968 20.10693359 54.00268555 C21.1875 56.15234375 21.1875 56.15234375 21.1875 60.15234375 C18.21905616 64.79432353 14.10177957 67.68984813 9.6875 70.83984375 C9.02363281 71.32517578 8.35976563 71.81050781 7.67578125 72.31054688 C-0.46542233 78.20113828 -0.46542233 78.20113828 -4.83203125 78.04296875 C-13.09206356 75.57470221 -17.92257428 62.66461528 -21.8125 55.52734375 C-22.30580811 54.64530273 -22.79911621 53.76326172 -23.30737305 52.85449219 C-26.23683498 47.30131439 -28.21485981 42.4600291 -26.8125 36.15234375 C-25.57049135 33.38257958 -23.91516329 31.1085835 -22.0625 28.71484375 C-21.05668496 27.33993601 -20.05285717 25.9635728 -19.05078125 24.5859375 C-18.52307129 23.87163574 -17.99536133 23.15733398 -17.45166016 22.42138672 C-14.58959295 18.45950817 -11.93159065 14.36254101 -9.25 10.27734375 C-8.25113216 8.75751195 -7.25000732 7.23915986 -6.24609375 5.72265625 C-5.61272095 4.75996826 -5.61272095 4.75996826 -4.96655273 3.77783203 C-2.42936516 0.20419233 -2.42936516 0.20419233 0 0 Z " fill="#BF7C31" transform="translate(513.8125,498.84765625)"/>
  <path d="M0 0 C2.19902369 3.04918982 1.27299332 5.87069643 0.83618164 9.45361328 C-0.11901022 15.15792848 -1.43831832 20.75856935 -2.88378906 26.35498047 C-3.40738769 28.39957818 -3.90289104 30.44973718 -4.39770508 32.50146484 C-6.35195688 40.31711184 -8.82586413 46.37995697 -13.7199707 52.77490234 C-14.71857116 54.27549665 -15.70424205 55.78477309 -16.67700195 57.30224609 C-17.14944336 58.03121094 -17.62188477 58.76017578 -18.10864258 59.51123047 C-18.57850586 60.23761719 -19.04836914 60.96400391 -19.5324707 61.71240234 C-20.02166992 62.46585938 -20.51086914 63.21931641 -21.01489258 63.99560547 C-21.48088867 64.71554687 -21.94688477 65.43548828 -22.42700195 66.17724609 C-22.8444165 66.82169678 -23.26183105 67.46614746 -23.69189453 68.13012695 C-24.77292962 69.80177939 -24.77292962 69.80177939 -25.7199707 71.77490234 C-26.3799707 71.77490234 -27.0399707 71.77490234 -27.7199707 71.77490234 C-29.13867607 69.59180832 -30.4404353 67.41316509 -31.7199707 65.14990234 C-34.88146889 59.70996976 -38.20972392 54.49098261 -41.9074707 49.39990234 C-42.32480469 48.82030762 -42.74213867 48.24071289 -43.17211914 47.64355469 C-45.00334309 45.10873993 -46.85676216 42.59583944 -48.75512695 40.11083984 C-52.81984905 34.57392911 -52.81984905 34.57392911 -52.3449707 30.77490234 C-51.8087207 29.78490234 -51.2724707 28.79490234 -50.7199707 27.77490234 C-46.16864508 19.01190226 -46.07807343 12.40896388 -47.7199707 2.77490234 C-46.99519531 2.72479004 -46.27041992 2.67467773 -45.52368164 2.62304688 C-42.17200079 2.38790668 -38.82101461 2.14394576 -35.4699707 1.89990234 C-34.33043945 1.82126953 -33.1909082 1.74263672 -32.0168457 1.66162109 C-25.3662698 1.17038537 -18.86766766 0.40691512 -12.30712891 -0.79663086 C-3.22915931 -2.30005982 -3.22915931 -2.30005982 0 0 Z " fill="#C07C32" transform="translate(487.719970703125,631.22509765625)"/>
  <path d="M0 0 C3.24077447 1.0984255 5.54237088 2.42024129 8.33203125 4.3984375 C9.37617187 5.12160156 10.4203125 5.84476563 11.49609375 6.58984375 C12.06102539 6.98316895 12.62595703 7.37649414 13.20800781 7.78173828 C16.49594836 10.03543985 19.85477721 12.17960411 23.20703125 14.3359375 C24.65502019 15.27072139 26.10293586 16.20561879 27.55078125 17.140625 C28.28167969 17.61209961 29.01257813 18.08357422 29.765625 18.56933594 C33.58098 21.03080196 37.39414899 23.49564356 41.20703125 25.9609375 C41.90143311 26.40928955 42.59583496 26.8576416 43.3112793 27.31958008 C44.6119323 28.16039504 45.91093998 29.00376257 47.20800781 29.85009766 C48.40014714 30.6222569 49.59994055 31.38274604 50.80761719 32.13037109 C54.92512115 34.72672003 54.92512115 34.72672003 55.89453125 37.7734375 C55.93578125 38.5159375 55.97703125 39.2584375 56.01953125 40.0234375 C57.99953125 40.5184375 57.99953125 40.5184375 60.01953125 41.0234375 C59.30861328 41.08813232 58.59769531 41.15282715 57.86523438 41.21948242 C39.16961305 42.95469584 20.73675805 45.4943646 2.21240234 48.52050781 C-1.51208552 49.10717588 -5.23469806 49.59616328 -8.98046875 50.0234375 C-12.18755509 44.94279557 -15.21868348 39.80044744 -17.85546875 34.3984375 C-18.26539063 33.56054688 -18.6753125 32.72265625 -19.09765625 31.859375 C-20.52568447 27.27199232 -21.14626516 23.30312101 -18.92773438 18.96484375 C-17.47316814 16.83283617 -15.92487909 14.83517116 -14.29296875 12.8359375 C-13.76251953 12.15080078 -13.23207031 11.46566406 -12.68554688 10.75976562 C-11.15669846 8.81071839 -9.58139006 6.91346424 -7.98046875 5.0234375 C-7.14902344 4.01667969 -6.31757812 3.00992188 -5.4609375 1.97265625 C-2.98046875 0.0234375 -2.98046875 0.0234375 0 0 Z " fill="#C07B31" transform="translate(569.98046875,670.9765625)"/>
  <path d="M0 0 C4.17347927 3.11059968 8.31084792 6.24722944 12.375 9.5 C23.36568849 18.02952577 35.42777687 22.98474745 48.6015625 27.203125 C51 28 51 28 53 29 C49.16642604 51.34570087 49.16642604 51.34570087 43 57 C36.89144797 58.092113 33.30569728 55.9064764 28.4375 52.625 C27.74640137 52.17600342 27.05530273 51.72700684 26.34326172 51.2644043 C20.52029354 47.44520265 14.83415913 43.42910018 9.20703125 39.328125 C5.51077414 36.64484944 1.75799897 34.05126988 -2.01171875 31.47265625 C-6.79989057 27.92621072 -6.79989057 27.92621072 -7.41601562 25.07446289 C-7.38820922 18.91186891 -5.90350906 14.07507433 -3.5 8.4375 C-3.16613281 7.61958984 -2.83226562 6.80167969 -2.48828125 5.95898438 C-1.67280353 3.9668888 -0.83836864 1.98257074 0 0 Z " fill="#BF7B31" transform="translate(589,629)"/>
  <path d="M0 0 C3.05707435 3.05707435 2.32514176 6.63170237 2.3359375 10.734375 C2.3425943 11.60515686 2.3492511 12.47593872 2.35610962 13.37310791 C2.36624741 15.2190947 2.37092629 17.06511822 2.37060547 18.91113281 C2.37496166 21.72523249 2.41122083 24.5377423 2.44921875 27.3515625 C2.45509022 29.14582798 2.4590574 30.9401009 2.4609375 32.734375 C2.47530853 33.57208435 2.48967957 34.4097937 2.50448608 35.27288818 C2.46313036 40.60879229 1.71657768 43.87503375 -2 48 C-4.16064453 48.96630859 -4.16064453 48.96630859 -6.5078125 49.2734375 C-7.82507324 49.46631348 -7.82507324 49.46631348 -9.16894531 49.66308594 C-10.57031738 49.8298584 -10.57031738 49.8298584 -12 50 C-13.43617676 50.20931152 -13.43617676 50.20931152 -14.90136719 50.42285156 C-17.8892657 50.85475392 -20.88011271 51.24482001 -23.875 51.625 C-24.89335937 51.7590625 -25.91171875 51.893125 -26.9609375 52.03125 C-31.02868667 52.55577555 -34.89046455 53 -39 53 C-38.33203275 49.33285979 -37.38226115 45.86241712 -36.25 42.3125 C-34.56658567 36.92069467 -33.00271997 31.50726303 -31.5 26.0625 C-31.18144043 24.92325073 -31.18144043 24.92325073 -30.85644531 23.76098633 C-29.84210979 20.12110621 -28.86240675 16.48009173 -27.96875 12.80859375 C-27.6490625 11.55175781 -27.329375 10.29492188 -27 9 C-26.731875 7.88625 -26.46375 6.7725 -26.1875 5.625 C-25 3 -25 3 -22.84375 1.69921875 C-19.40435772 0.853544 -16.01191605 0.27958484 -12.5 -0.1875 C-11.2109375 -0.36667969 -9.921875 -0.54585938 -8.59375 -0.73046875 C-5.36752521 -0.97243561 -3.06635921 -0.96101475 0 0 Z " fill="#C17D32" transform="translate(518,373)"/>
  <path d="M0 0 C5.53487488 0.99018404 9.60045 4.7003375 14 8 C14.68578125 8.50402344 15.3715625 9.00804687 16.078125 9.52734375 C25.74247461 17.24703765 37.22364985 32.82664832 40 45 C34.45019882 45.24844151 28.90367292 45.42920258 23.34960938 45.54931641 C21.46361893 45.59940697 19.57801305 45.66750636 17.69335938 45.75439453 C2.29536236 46.44616501 2.29536236 46.44616501 -3.1015625 43.04589844 C-5.97190804 39.8167597 -7.71013219 37.00258823 -8.33398438 32.69262695 C-8.17393994 30.30983199 -7.68984782 28.2853645 -7 26 C-6.78214844 25.18096191 -6.56429687 24.36192383 -6.33984375 23.51806641 C-5.61699147 20.9283395 -4.82167011 18.37246747 -4 15.8125 C-1.52746989 8.02219901 -1.52746989 8.02219901 0 0 Z " fill="#C17C32" transform="translate(657,664)"/>
  <path d="M0 0 C4.57756359 0.31210661 8.00574046 1.81266739 12 4 C11.23854044 13.27680606 9.6815932 22.3945263 8.125 31.5625 C7.86560012 33.107374 7.606484 34.65229567 7.34765625 36.19726562 C5.62097914 46.47477636 3.82576305 56.7396685 2 67 C-1.71923047 65.56424196 -4.83564799 63.95584519 -8.125 61.6875 C-8.97320313 61.11386719 -9.82140625 60.54023438 -10.6953125 59.94921875 C-15.72655185 55.69398412 -16.68709423 50.90313586 -17.6875 44.6875 C-17.81705078 43.96626953 -17.94660156 43.24503906 -18.08007812 42.50195312 C-18.44681247 40.33841452 -18.73729085 38.17844208 -19 36 C-19.15597656 34.70964844 -19.31195312 33.41929687 -19.47265625 32.08984375 C-19.36546788 26.48078001 -15.85621532 22.31150025 -12.75 17.875 C-11.87021484 16.57369141 -11.87021484 16.57369141 -10.97265625 15.24609375 C-9.83708782 13.56953541 -8.69352539 11.89835632 -7.54101562 10.23339844 C-6.23496551 8.3405362 -4.96137076 6.43253166 -3.703125 4.5078125 C-2 2 -2 2 0 0 Z " fill="#BF7B33" transform="translate(533,419)"/>
  <path d="M0 0 C6.88135593 5.04066402 11.37119385 11.61815115 16.07299805 18.61083984 C17.43302365 20.6183924 18.83130075 22.5952119 20.23242188 24.57421875 C25.60087398 32.388652 28.5843011 38.17664284 27 48 C16.76744856 47.4357515 6.97502915 45.22241582 -3 43 C-1.515 42.505 -1.515 42.505 0 42 C-0.3609375 40.92363281 -0.721875 39.84726562 -1.09375 38.73828125 C-5.40398494 25.39788163 -7.25775541 14.16893106 -1 1 C-0.67 0.67 -0.34 0.34 0 0 Z " fill="#BD7A33" transform="translate(425,682)"/>
  <path d="M0 0 C2.3828125 0.36328125 2.3828125 0.36328125 4.9453125 2.23828125 C7.35836127 5.80539683 7.82560468 8.02391792 7.3828125 12.36328125 C5.5078125 14.23828125 5.5078125 14.23828125 3.3828125 15.36328125 C2.7228125 15.36328125 2.0628125 15.36328125 1.3828125 15.36328125 C1.46997867 17.94820914 1.57686369 20.52975627 1.6953125 23.11328125 C1.71787109 23.84289062 1.74042969 24.5725 1.76367188 25.32421875 C1.98284368 29.70765489 2.59475159 32.02073204 5.3828125 35.36328125 C3.90372542 39.80054249 0.89010702 40.98647672 -3.046875 43.2578125 C-5.6171875 44.36328125 -5.6171875 44.36328125 -8.9296875 43.86328125 C-9.8165625 43.36828125 -10.7034375 42.87328125 -11.6171875 42.36328125 C-12.5659375 41.99203125 -13.5146875 41.62078125 -14.4921875 41.23828125 C-15.5440625 40.80515625 -15.5440625 40.80515625 -16.6171875 40.36328125 C-16.20817682 37.90921718 -15.83028307 35.77437811 -14.6796875 33.5546875 C-11.53624412 27.07133554 -10.12865318 19.52845125 -10.6171875 12.36328125 C-13.0921875 11.37328125 -13.0921875 11.37328125 -15.6171875 10.36328125 C-14.2971875 10.03328125 -12.9771875 9.70328125 -11.6171875 9.36328125 C-11.4625 7.97109375 -11.4625 7.97109375 -11.3046875 6.55078125 C-9.86063594 -0.14436687 -6.14282336 -0.17013651 0 0 Z " fill="#C17C35" transform="translate(490.6171875,188.63671875)"/>
  <path d="M0 0 C0.24817479 8.79521874 -0.42589925 17.44403968 -1.22680664 26.19140625 C-1.43959061 28.52290703 -1.64312882 30.85509217 -1.84570312 33.1875 C-1.97862598 34.67713168 -2.11207015 36.16671695 -2.24609375 37.65625 C-2.3065538 38.34996704 -2.36701385 39.04368408 -2.42930603 39.75842285 C-2.70135992 42.68353312 -3.06655038 45.19965114 -4 48 C-8.52660217 46.73676219 -11.58448756 45.24698387 -15 42 C-17.78639776 34.59311989 -17.29577133 25.33799984 -17.5 17.5 C-17.56441284 16.06648193 -17.56441284 16.06648193 -17.63012695 14.60400391 C-17.69316319 7.94337166 -17.69316319 7.94337166 -15.73657227 5.28051758 C-10.94585455 1.16348295 -6.15934226 -0.11425424 0 0 Z " fill="#BE7C34" transform="translate(551,355)"/>
  <path d="M0 0 C0.87011719 0.02255859 1.74023438 0.04511719 2.63671875 0.06835938 C4.75857251 0.12665206 6.87952629 0.21630916 9 0.3125 C7.66188918 8.9563883 2.50187041 15.44748376 -4.0703125 20.9375 C-10.04814182 25.19700591 -15.81431777 25.03274321 -23 24.3125 C-26.21374365 23.29995063 -29.08683186 21.99867484 -32 20.3125 C-29.86410317 18.17660317 -27.72601371 16.045539 -25.5625 13.9375 C-22.93227301 11.34498717 -22.93227301 11.34498717 -20.6875 8.3125 C-14.90302175 1.36867363 -8.80630269 -0.43963877 0 0 Z " fill="#C57F35" transform="translate(560,232.6875)"/>
  <path d="M0 0 C5.53846154 3.07692308 5.53846154 3.07692308 7 6 C10.02934491 6.65772428 10.02934491 6.65772428 13 7 C13 7.33 13 7.66 13 8 C10.69 8 8.38 8 6 8 C5.814375 9.423125 5.814375 9.423125 5.625 10.875 C5 14 5 14 3 16 C-0.2578125 16.1953125 -0.2578125 16.1953125 -4.125 16.125 C-6.04699219 16.09792969 -6.04699219 16.09792969 -8.0078125 16.0703125 C-8.99523437 16.04710937 -9.98265625 16.02390625 -11 16 C-11.65355469 17.28583984 -11.65355469 17.28583984 -12.3203125 18.59765625 C-15.66620805 25.02148601 -18.96765838 30.7221783 -24 36 C-27.53734352 33.1364362 -28.88412571 31.67752381 -29.6640625 27.1171875 C-29.6772288 25.70312635 -29.66362281 24.28859491 -29.625 22.875 C-29.64433594 22.15957031 -29.66367187 21.44414062 -29.68359375 20.70703125 C-29.6640625 18.6171875 -29.6640625 18.6171875 -29 15 C-26.5234375 13.2578125 -26.5234375 13.2578125 -24 12 C-23.12177688 9.91466367 -23.12177688 9.91466367 -23 8 C-21.96939453 7.97873047 -21.96939453 7.97873047 -20.91796875 7.95703125 C-18.19615158 7.81295795 -15.66000081 7.60258918 -13 7 C-10.97357892 4.67994969 -10.97357892 4.67994969 -10 2 C-6.24543433 -0.50304378 -4.45254066 -0.45280074 0 0 Z " fill="#E77348" transform="translate(521,189)"/>
  <path d="M0 0 C0.12117187 0.85980469 0.24234375 1.71960938 0.3671875 2.60546875 C1.21705479 8.60030184 2.09079407 14.58614321 3.0625 20.5625 C4.07245302 27.01983744 4.59448009 33.47966678 5 40 C3.59013562 40.3042656 2.17131189 40.56720908 0.75 40.8125 C-0.03890625 40.96332031 -0.8278125 41.11414063 -1.640625 41.26953125 C-4 41 -4 41 -6.0625 38.91015625 C-8.08760755 35.86841205 -9.97438392 32.81959132 -11.75 29.625 C-12.36359375 28.54476563 -12.9771875 27.46453125 -13.609375 26.3515625 C-16.155481 20.21516097 -15.14377755 15.32861156 -12.875 9.25 C-12.48054687 8.14140625 -12.08609375 7.0328125 -11.6796875 5.890625 C-8.84876367 1.0188026 -5.47149169 0 0 0 Z " fill="#C07D35" transform="translate(546,297)"/>
  <path d="M0 0 C3.04500446 1.75601484 4.09191512 4.28920231 5.72265625 7.3515625 C6.66044922 9.06085938 6.66044922 9.06085938 7.6171875 10.8046875 C9.00771768 14.35032941 9.29694668 15.60869201 7.91015625 19.1015625 C6.16796875 21.48828125 6.16796875 21.48828125 4.03515625 23.7890625 C3.33648438 24.55605469 2.6378125 25.32304687 1.91796875 26.11328125 C-0.75534589 28.76059088 -2.34878363 30.0410678 -6.15234375 30.3515625 C-9.08984375 30.1015625 -9.08984375 30.1015625 -11.08984375 28.1015625 C-11.57668254 25.41476353 -11.73123974 22.77184279 -11.8984375 20.046875 C-12.03526874 17.17433078 -12.03526874 17.17433078 -12.5 14.65625 C-12.81203789 12.13357746 -12.86264616 10.53478607 -12.08984375 8.1015625 C-8.9481875 4.53710391 -4.99567968 0.24278069 0 0 Z " fill="#C68035" transform="translate(522.08984375,326.8984375)"/>
  <path d="M0 0 C2.52113092 -0.05447822 5.0410585 -0.09389852 7.5625 -0.125 C8.26697266 -0.14175781 8.97144531 -0.15851563 9.69726562 -0.17578125 C15.7490321 -0.2315579 20.8568085 0.57120567 26 4 C26 4.66 26 5.32 26 6 C24.65035156 6.82757813 24.65035156 6.82757813 23.2734375 7.671875 C19.40904637 10.120913 17.70514931 13.26776863 15.625 17.25 C15.27050781 17.8996875 14.91601562 18.549375 14.55078125 19.21875 C13.68743121 20.80544737 12.8418399 22.40178618 12 24 C8.45034523 22.56323497 6.92912058 20.88698102 4.875 17.6875 C4.37742187 16.92824219 3.87984375 16.16898438 3.3671875 15.38671875 C0.2649816 9.97115359 -0.20892459 6.16327551 0 0 Z " fill="#BC7B34" transform="translate(439,223)"/>
  <path d="M0 0 C0.33 0 0.66 0 1 0 C2.2205235 21.60778648 2.2205235 21.60778648 -5 31 C-10.23375382 36.65025375 -15.92832145 41.82496065 -23 45 C-24.32 45 -25.64 45 -27 45 C-27 41.37 -27 37.74 -27 34 C-25.700625 33.649375 -24.40125 33.29875 -23.0625 32.9375 C-15.32682146 30.35080623 -8.78894687 25.28643629 -5 18 C-2.65569797 12.172419 -1.23494266 6.14565582 0 0 Z " fill="#C37F34" transform="translate(526,278)"/>
  <path d="M0 0 C0 0.99 0 1.98 0 3 C3.05270463 3.15811388 3.05270463 3.15811388 6 2 C5.01958581 4.45103548 4.3486182 5.76758786 2.125 7.25 C0 8 0 8 -4 8 C-4.0825 8.928125 -4.165 9.85625 -4.25 10.8125 C-5 14 -5 14 -6.625 15.875 C-10.02207101 17.4841389 -12.28435707 17.52149375 -16 17 C-18.8660458 14.75700764 -20.59928073 13.14050868 -21.8125 9.6875 C-21.874375 9.130625 -21.93625 8.57375 -22 8 C-23.65 9.32 -25.3 10.64 -27 12 C-27.33 11.01 -27.66 10.02 -28 9 C-26.87720538 8.01830524 -25.75168527 7.03972702 -24.625 6.0625 C-23.99851562 5.51722656 -23.37203125 4.97195313 -22.7265625 4.41015625 C-18.58702506 1.02922182 -13.91899532 1.97915398 -8.85351562 2.12695312 C-5.0029725 2.18695242 -3.28594746 2.19063164 0 0 Z " fill="#165883" transform="translate(500,260)"/>
  <path d="M0 0 C5.53846154 3.07692308 5.53846154 3.07692308 7 6 C10.02934491 6.65772428 10.02934491 6.65772428 13 7 C13 7.33 13 7.66 13 8 C10.69 8 8.38 8 6 8 C5.87625 8.94875 5.7525 9.8975 5.625 10.875 C5 14 5 14 3 16 C1.046875 16.01171875 1.046875 16.01171875 -1.25 15.6875 C-2.04792969 15.57921875 -2.84585938 15.4709375 -3.66796875 15.359375 C-6.45016636 14.93062763 -9.22913555 14.49733464 -12 14 C-13.34323432 7.77227723 -13.34323432 7.77227723 -11.75 4.1875 C-8.23589715 -0.20512857 -5.41145525 -0.55031748 0 0 Z " fill="#B87736" transform="translate(521,189)"/>
  <path d="M0 0 C1.875 1.25 1.875 1.25 3 3 C3.09956949 6.78364067 1.99933348 8.00073154 -0.5625 10.8125 C-3.08743664 12.73974633 -5.01659408 13.39868936 -8.1875 13.5625 C-12 13 -12 13 -14.0625 11.25 C-15.19745157 8.52611624 -15.08068543 7.70939618 -14 5 C-12.109375 3.26171875 -12.109375 3.26171875 -9.75 1.6875 C-8.98171875 1.15511719 -8.2134375 0.62273437 -7.421875 0.07421875 C-4.45185869 -1.24312719 -3.05156454 -0.98122698 0 0 Z " fill="#C58135" transform="translate(488,297)"/>
  <path d="M0 0 C2 1.1875 2 1.1875 3 3 C3.3125 5.5625 3.3125 5.5625 3 8 C1 10 1 10 -2.2578125 10.1953125 C-3.53398437 10.17210937 -4.81015625 10.14890625 -6.125 10.125 C-8.04699219 10.09792969 -8.04699219 10.09792969 -10.0078125 10.0703125 C-11.48894531 10.03550781 -11.48894531 10.03550781 -13 10 C-12.52039967 3.64529559 -12.52039967 3.64529559 -10.4375 1.0625 C-6.72271629 -0.55676469 -4.0510756 -0.38581672 0 0 Z " fill="#C57E35" transform="translate(466,307)"/>
  <path d="M0 0 C3.1875 1.25 3.1875 1.25 4.38671875 3.328125 C4.65097656 3.96234375 4.91523437 4.5965625 5.1875 5.25 C-4.65716019 14.25 -4.65716019 14.25 -10.8125 14.25 C-11.38373695 10.98578883 -11.19917668 8.9025169 -9.5 6.03515625 C-5.00673664 0.3283106 -5.00673664 0.3283106 0 0 Z " fill="#C68233" transform="translate(508.8125,293.75)"/>
  <path d="M0 0 C1.32 0.33 2.64 0.66 4 1 C4.02696365 2.79158489 4.04637917 4.58328473 4.0625 6.375 C4.07410156 7.37273437 4.08570313 8.37046875 4.09765625 9.3984375 C4 12 4 12 3 14 C-3.875 13.125 -3.875 13.125 -5 12 C-5.41867599 8.99948871 -5.564739 6.87475307 -3.8828125 4.26953125 C-2.64477451 2.79717534 -1.32668039 1.39301441 0 0 Z " fill="#C48132" transform="translate(514,275)"/>
  <path d="M0 0 C0.99 0.33 1.98 0.66 3 1 C-0.23256976 4.28190459 -3.47157606 7.55726457 -6.71679688 10.82666016 C-7.82049298 11.94043123 -8.92238973 13.05598832 -10.02246094 14.17333984 C-11.60145074 15.77651237 -13.18674114 17.37320911 -14.7734375 18.96875 C-15.26621185 19.47184692 -15.75898621 19.97494385 -16.26669312 20.49328613 C-17.473756 21.70074513 -18.73278596 22.85582929 -20 24 C-20.66 24 -21.32 24 -22 24 C-22.2475 24.61875 -22.495 25.2375 -22.75 25.875 C-24.22047178 28.37480203 -25.41403076 28.83316022 -28 30 C-23.04305767 22.69056552 -16.89121496 16.65973551 -10.625 10.5 C-9.59198014 9.47703465 -8.55942442 8.45360039 -7.52734375 7.4296875 C-5.0235512 4.94770186 -2.51355745 2.47210065 0 0 Z " fill="#D86D4C" transform="translate(305,276)"/>
  <path d="M0 0 C-1.56543178 3.84242345 -3.98531292 6.19563993 -7 9 C-7.78375 9.78375 -8.5675 10.5675 -9.375 11.375 C-12 13 -12 13 -15.8125 12.75 C-16.864375 12.5025 -17.91625 12.255 -19 12 C-17.53887398 9.07774796 -15.10739117 8.56865094 -12.26953125 7.21875 C-9.1280202 5.53174234 -6.43589203 3.40259039 -3.6640625 1.171875 C-2 0 -2 0 0 0 Z " fill="#C17C32" transform="translate(426,317)"/>
  <path d="M0 0 C1.32 0 2.64 0 4 0 C4.3125 2.25 4.3125 2.25 4 5 C0.64354991 8.55388833 -2.18720039 9.55229771 -7 10 C-6.52727227 5.74545047 -4.03562624 3.80795427 -1 1 C-0.67 0.67 -0.34 0.34 0 0 Z " fill="#BA792E" transform="translate(412,299)"/>
  <path d="M0 0 C0.99 0.33 1.98 0.66 3 1 C2.8125 3.3125 2.8125 3.3125 2 6 C-0.5625 7.8125 -0.5625 7.8125 -3 9 C-3.75 6.75 -3.75 6.75 -4 4 C-2.0625 1.6875 -2.0625 1.6875 0 0 Z " fill="#C58535" transform="translate(498,284)"/>
  <path d="M0 0 C0.66 0.33 1.32 0.66 2 1 C0.71451591 2.33929505 -0.57858155 3.67128643 -1.875 5 C-2.59429688 5.7425 -3.31359375 6.485 -4.0546875 7.25 C-6 9 -6 9 -8 9 C-6.4169423 4.7257442 -3.49431596 2.73468206 0 0 Z " fill="#1A5880" transform="translate(724,732)"/>
  <path d="M0 0 C1.98 0.495 1.98 0.495 4 1 C3.67 1.99 3.34 2.98 3 4 C1.68 4 0.36 4 -1 4 C-0.67 2.68 -0.34 1.36 0 0 Z M2 4 C2.66 4.33 3.32 4.66 4 5 C3.67 5.99 3.34 6.98 3 8 C2.34 7.67 1.68 7.34 1 7 C1.33 6.01 1.66 5.02 2 4 Z " fill="#F4BB53" transform="translate(503,260)"/>
  <path d="M0 0 C0.66 0.33 1.32 0.66 2 1 C0.35 2.98 -1.3 4.96 -3 7 C-3.66 6.34 -4.32 5.68 -5 5 C-3.35 3.35 -1.7 1.7 0 0 Z " fill="#D96E4D" transform="translate(314,268)"/>
</svg>